<?xml version="1.0" standalone="no"?>
<!DOCTYPE svg PUBLIC "-//W3C//DTD SVG 20010904//EN"
 "http://www.w3.org/TR/2001/REC-SVG-20010904/DTD/svg10.dtd">
<svg version="1.0" xmlns="http://www.w3.org/2000/svg"
 width="500.000000pt" height="500.000000pt" viewBox="0 0 500.000000 500.000000"
 preserveAspectRatio="xMidYMid meet">
<metadata>
Created by potrace 1.14, written by Peter Selinger 2001-2017
</metadata>
<g transform="translate(0.000000,500.000000) scale(0.100000,-0.100000)"
fill="#000000" stroke="none">
<path d="M3091 4388 c-291 -41 -519 -246 -606 -543 -33 -112 -43 -275 -26
-404 11 -77 10 -93 -3 -118 -15 -27 -15 -24 -16 67 0 52 -7 129 -14 170 -11
64 -11 84 2 135 25 101 21 253 -11 374 -15 57 -27 120 -28 140 -1 41 -13 79
-21 65 -3 -5 -16 -49 -29 -99 -20 -73 -24 -115 -24 -220 1 -129 1 -131 50
-270 l48 -140 1 -140 c1 -106 -4 -156 -17 -205 -20 -71 -105 -260 -118 -260
-10 0 -19 143 -17 272 l2 107 -59 116 c-37 74 -61 111 -66 103 -4 -7 -13 -44
-20 -82 -17 -103 0 -183 66 -312 30 -57 59 -129 65 -160 12 -56 7 -104 -9
-104 -18 0 -102 91 -146 159 -25 38 -73 118 -106 178 -97 172 -181 274 -284
350 l-30 22 26 1 c40 0 137 37 190 71 136 87 205 242 179 400 -23 134 -106
225 -250 273 -114 37 -215 46 -542 46 -258 0 -298 -2 -298 -15 0 -10 10 -15
33 -15 48 0 109 -19 134 -42 45 -42 48 -84 48 -718 0 -635 -3 -687 -48 -727
-28 -26 -80 -43 -128 -43 -28 0 -39 -4 -39 -15 0 -13 41 -15 305 -15 253 0
303 2 299 14 -3 8 -27 16 -58 19 -150 15 -165 62 -166 495 l0 262 25 0 c73 0
212 -81 278 -163 19 -23 66 -93 105 -156 66 -108 69 -115 59 -148 -8 -25 -8
-60 0 -121 17 -135 43 -192 167 -372 67 -98 78 -140 59 -216 -8 -34 -17 -130
-20 -227 l-6 -168 -48 95 c-94 187 -158 264 -282 338 l-77 46 0 -28 c0 -42 48
-198 78 -254 55 -102 162 -197 301 -268 45 -23 45 -23 62 -108 10 -47 25 -105
33 -129 21 -57 21 -57 -14 -18 -66 76 -243 179 -330 193 -50 8 -53 -9 -11 -70
74 -107 207 -184 362 -210 32 -6 38 -12 65 -68 45 -97 144 -242 155 -231 7 7
-3 28 -31 64 -43 57 -145 253 -170 327 -17 53 -12 62 59 117 98 76 191 262
191 383 0 82 -10 92 -55 58 -82 -63 -179 -228 -212 -361 l-17 -70 -13 65 c-8
36 -16 133 -19 215 -5 140 -4 152 15 183 12 18 42 45 67 60 129 75 224 144
267 193 47 53 144 225 133 236 -3 3 -28 -14 -55 -39 -27 -24 -94 -68 -148 -97
-123 -64 -160 -95 -212 -172 -23 -34 -41 -55 -41 -46 0 40 96 288 138 355 13
21 21 22 124 22 83 0 109 3 106 13 -3 6 -18 13 -34 15 -42 4 -132 31 -138 41
-3 5 16 51 44 102 27 52 63 132 81 179 19 48 45 98 62 114 l29 29 37 -75 c113
-229 305 -377 549 -424 208 -40 499 6 702 110 l65 33 6 234 c9 334 23 373 142
388 28 3 52 12 55 19 3 9 -56 12 -273 12 -217 0 -276 -3 -273 -12 3 -7 28 -15
56 -18 67 -7 104 -35 119 -91 7 -26 12 -128 12 -252 l1 -207 -40 -44 c-134
-145 -451 -181 -667 -74 -139 68 -255 229 -303 423 l-20 79 39 41 c60 62 172
257 157 273 -3 2 -33 -17 -68 -44 -35 -27 -81 -62 -102 -78 l-39 -29 6 124
c10 228 76 400 201 524 112 111 214 150 396 149 120 -1 202 -19 297 -66 116
-57 188 -143 217 -256 7 -25 17 -47 24 -50 10 -3 12 31 10 145 l-3 148 -58 28
c-177 84 -446 124 -646 95z m-1486 -68 c98 -14 189 -61 232 -121 94 -132 78
-354 -33 -462 -77 -74 -181 -107 -344 -107 l-100 0 0 350 0 350 88 0 c48 0
119 -5 157 -10z m776 -215 c7 15 8 12 4 -14 -3 -18 -6 -72 -7 -120 l-2 -86 -3
70 c-3 51 -7 66 -14 55 -8 -12 -9 -9 -5 10 3 14 7 54 8 90 1 56 2 59 6 20 3
-37 6 -41 13 -25z m21 -175 c3 -74 2 -121 -2 -105 -8 30 -13 252 -6 244 2 -2
5 -65 8 -139z m-52 15 c-5 -22 -9 -51 -9 -65 0 -23 1 -23 8 -5 6 14 8 7 7 -25
0 -25 2 -63 6 -85 l8 -40 -17 40 c-17 42 -24 176 -10 209 12 31 17 13 7 -29z
m71 -200 c-10 -36 -10 -34 -6 24 3 35 6 91 7 125 2 50 3 45 5 -24 2 -47 -1
-103 -6 -125z m376 -121 c0 -9 -30 -47 -66 -85 -62 -64 -65 -69 -46 -80 11 -6
17 -8 12 -4 -4 5 4 21 19 36 14 15 26 30 25 33 -1 3 2 6 5 5 3 0 12 8 21 18
10 13 9 9 -2 -12 -19 -35 -106 -135 -104 -120 1 6 0 12 -1 15 -1 3 -3 26 -4
52 -2 36 2 52 16 64 10 10 18 14 18 10 0 -4 24 13 52 38 29 25 53 46 54 46 0
0 1 -7 1 -16z m-67 -107 c0 -2 -12 -14 -27 -28 l-28 -24 24 28 c23 25 31 32
31 24z m-545 -77 c8 -16 15 -39 15 -52 0 -16 3 -19 9 -10 13 22 22 -22 25
-133 2 -55 1 -76 -1 -47 -2 28 -7 52 -11 52 -4 0 -6 26 -5 57 l2 58 -9 -52
c-4 -29 -6 -73 -5 -98 2 -24 -1 -47 -6 -50 -5 -4 -6 2 -2 11 4 12 3 15 -5 10
-8 -5 -10 -1 -5 10 4 11 2 15 -4 11 -16 -10 -44 69 -37 100 5 20 4 24 -6 18
-10 -6 -12 -4 -6 10 3 10 9 45 13 77 3 32 10 58 14 58 5 0 15 -13 24 -30z
m-48 -32 c-3 -7 -5 -2 -5 12 0 14 2 19 5 13 2 -7 2 -19 0 -25z m-235 -402 c8
8 48 -69 48 -93 0 -14 2 -15 9 -4 6 9 14 0 27 -35 19 -51 23 -106 10 -139 -8
-20 -7 -20 8 -1 18 22 21 14 6 -14 -7 -13 -7 -28 1 -47 5 -15 6 -23 1 -18 -6
6 -22 43 -38 82 -22 58 -30 70 -41 62 -20 -17 -16 -34 5 -18 15 13 16 12 4 -3
-12 -15 -11 -23 9 -55 15 -25 18 -34 7 -25 -22 18 -101 179 -94 191 3 5 0 27
-8 49 -12 33 -14 82 -6 137 0 6 11 -9 23 -33 13 -24 26 -40 29 -36z m249 -216
l46 0 -48 -112 c-27 -62 -54 -126 -60 -143 l-11 -30 -13 45 c-8 25 -21 96 -30
159 -9 62 -19 120 -22 128 -3 8 14 2 43 -16 36 -23 60 -31 95 -31z m307 -140
c-7 -11 -19 -18 -26 -15 -7 3 -10 0 -7 -5 3 -5 0 -7 -8 -4 -8 3 -20 -3 -27
-13 -12 -15 -12 -16 0 -5 29 26 32 11 4 -20 l-29 -33 35 33 c44 39 64 43 27 4
-15 -16 -25 -31 -22 -34 10 -10 -55 -57 -71 -51 -13 5 -11 10 8 32 l23 26 -27
-24 c-16 -14 -26 -27 -23 -29 7 -7 -15 -32 -27 -32 -6 0 -4 8 3 17 8 9 0 7
-18 -7 -38 -28 -42 -35 -10 -20 21 10 21 10 -2 -7 -13 -9 -33 -19 -45 -20 -17
-3 -14 4 19 37 21 22 37 40 34 40 -3 0 -26 -22 -52 -48 -29 -29 -42 -49 -33
-49 8 0 13 4 10 9 -8 13 3 9 15 -6 10 -12 9 -14 -6 -11 -10 1 -24 -2 -30 -8
-7 -5 -13 -6 -13 -2 0 5 -10 0 -22 -11 -34 -29 54 76 99 117 21 20 59 52 85
71 26 19 44 39 40 43 -4 5 -1 5 6 1 7 -4 12 -2 12 5 0 7 3 9 6 6 4 -3 16 -1
28 5 11 7 24 12 28 13 3 0 10 3 14 8 14 13 14 7 2 -13z m-215 -114 c-38 -35
-71 -63 -75 -62 -4 0 -20 -17 -34 -39 -32 -47 -51 -69 -36 -40 14 27 101 145
107 145 2 0 2 -8 -1 -17 -5 -17 -5 -17 9 -1 14 18 87 78 94 78 2 0 -27 -29
-64 -64z m77 -67 c-31 -24 -60 -41 -60 -35 0 6 72 56 80 56 3 0 -6 -9 -20 -21z
m-642 -38 c1 -1 5 -1 8 0 3 1 19 -11 34 -26 15 -15 31 -26 35 -25 4 1 22 -16
40 -39 18 -22 35 -38 38 -35 8 8 71 -80 112 -158 22 -40 31 -69 25 -73 -7 -4
-7 -12 0 -25 8 -14 6 -18 -7 -16 -9 2 -19 8 -21 14 -2 7 -8 9 -14 6 -5 -4 2
-18 17 -34 l26 -27 -24 1 c-14 1 -43 15 -66 31 -54 37 -153 144 -145 156 3 5
-6 23 -20 40 -25 29 -30 43 -27 63 1 4 -5 19 -13 31 -9 13 -17 38 -19 57 -3
18 -8 41 -12 50 -6 15 4 17 33 9z m669 -286 c-1 -24 -5 -38 -9 -33 -3 6 -6 -4
-5 -23 1 -42 -59 -167 -107 -224 -29 -34 -34 -37 -33 -18 1 12 6 21 12 20 5
-1 9 7 8 18 -1 11 0 14 3 7 5 -10 12 -6 26 15 40 59 59 103 50 119 -7 12 -11
10 -20 -11 -7 -15 -8 -24 -2 -20 14 9 13 -1 -6 -36 -8 -17 -18 -29 -21 -26 -2
3 0 15 7 26 6 12 8 21 6 21 -3 0 -13 -14 -22 -31 -9 -19 -11 -28 -4 -24 8 5
11 3 8 -6 -3 -8 -10 -14 -16 -14 -6 0 -18 -9 -26 -20 -29 -38 -16 -5 51 130
45 90 70 130 76 122 6 -8 7 -6 3 6 -19 54 -18 53 -2 33 19 -23 21 -9 3 15 -11
15 -21 2 -74 -95 -34 -61 -65 -120 -68 -131 -8 -26 -1 -13 59 98 75 138 65 95
-13 -62 -66 -131 -86 -177 -60 -141 9 13 10 13 6 0 -2 -8 -10 -14 -16 -13 -6
2 -11 -2 -11 -9 0 -6 -3 -9 -6 -5 -3 3 4 27 15 53 12 26 19 49 16 52 -3 3 -5
-1 -5 -9 0 -12 -2 -11 -11 1 -8 12 -9 10 -4 -9 5 -18 4 -22 -6 -16 -9 6 -11 3
-6 -8 3 -10 3 -17 -2 -17 -4 0 -13 -15 -19 -32 -8 -28 -10 -29 -11 -10 -1 32
42 157 73 212 14 25 26 41 26 35 0 -5 14 13 31 40 17 28 41 60 52 72 19 21 22
22 38 7 12 -11 17 -29 16 -59z m-460 -339 c81 -43 196 -133 187 -147 -3 -6
-15 -4 -31 6 -14 9 -27 14 -31 11 -3 -3 -16 1 -30 10 -22 15 -26 15 -41 -1
-15 -17 -15 -17 2 -12 12 5 16 3 11 -5 -5 -8 -2 -9 10 -5 10 4 15 3 11 -3 -3
-6 -1 -10 6 -10 7 0 10 -3 7 -6 -15 -14 -184 89 -173 106 3 4 -2 11 -11 14 -9
4 -14 9 -11 13 4 3 1 13 -5 22 -10 13 -10 14 2 4 17 -15 30 -17 30 -3 0 5 -17
18 -37 29 l-38 19 37 -3 c20 -2 68 -20 105 -39z"/>
<path d="M2720 3553 l-65 -68 68 65 c62 60 72 70 64 70 -1 0 -32 -30 -67 -67z"/>
<path d="M2669 3533 c-13 -16 -12 -17 4 -4 16 13 21 21 13 21 -2 0 -10 -8 -17
-17z"/>
<path d="M2666 3451 c-4 -5 -2 -12 3 -15 5 -4 12 -2 15 3 4 5 2 12 -3 15 -5 4
-12 2 -15 -3z"/>
<path d="M2161 3444 c0 -11 3 -14 6 -6 3 7 2 16 -1 19 -3 4 -6 -2 -5 -13z"/>
<path d="M2172 3405 c0 -11 4 -31 8 -45 6 -20 8 -21 8 -5 0 11 -4 31 -8 45 -6
20 -8 21 -8 5z"/>
<path d="M2152 3360 c0 -14 2 -19 5 -12 2 6 2 18 0 25 -3 6 -5 1 -5 -13z"/>
<path d="M2165 3310 c3 -14 8 -36 11 -50 4 -20 3 -22 -5 -10 -13 19 -14 0 -1
-20 9 -13 10 -13 10 0 0 13 1 13 11 0 8 -11 9 -9 3 10 -11 41 -35 97 -29 70z"/>
<path d="M2192 3310 c0 -14 2 -19 5 -12 2 6 2 18 0 25 -3 6 -5 1 -5 -13z"/>
<path d="M1851 3055 c0 -5 6 -21 14 -35 8 -14 14 -20 14 -15 0 6 -6 21 -14 35
-8 14 -14 21 -14 15z"/>
<path d="M1851 3004 c-1 -6 6 -31 14 -54 8 -24 13 -53 9 -64 -4 -17 -3 -18 5
-6 9 12 11 13 11 1 0 -8 2 -12 5 -9 3 2 -6 36 -19 74 -14 38 -25 64 -25 58z"/>
<path d="M1900 2995 c0 -5 5 -17 10 -25 5 -8 10 -10 10 -5 0 6 -5 17 -10 25
-5 8 -10 11 -10 5z"/>
<path d="M1961 2883 c-1 -6 -4 -20 -7 -30 -5 -15 -4 -16 6 -3 9 12 10 9 6 -15
-5 -24 -4 -27 5 -12 7 12 7 26 0 45 -5 15 -10 22 -10 15z"/>
<path d="M1907 2827 c-3 -7 -2 -20 3 -27 6 -9 11 -7 20 10 6 12 9 24 6 28 -3
3 -6 -1 -6 -9 0 -11 -2 -12 -9 -1 -7 11 -9 11 -14 -1z"/>
<path d="M1976 2805 c-9 -26 -7 -32 5 -12 6 10 9 21 6 23 -2 3 -7 -2 -11 -11z"/>
<path d="M1986 2774 c-4 -9 -4 -19 -1 -22 2 -3 7 3 11 12 4 9 4 19 1 22 -2 3
-7 -3 -11 -12z"/>
<path d="M2320 2559 l-45 -41 48 37 c41 33 53 45 45 45 -2 0 -23 -18 -48 -41z"/>
<path d="M2363 2534 l-28 -25 33 22 c17 13 32 24 32 26 0 8 -11 1 -37 -23z"/>
<path d="M2174 2488 l-19 -23 23 19 c21 18 27 26 19 26 -2 0 -12 -10 -23 -22z"/>
<path d="M1660 2427 c0 -10 51 -87 57 -87 3 0 -2 11 -11 25 -18 28 -21 39 -6
30 14 -9 181 -257 176 -262 -2 -2 -16 12 -31 31 -15 20 -31 33 -37 30 -5 -3
-4 -12 3 -20 6 -8 10 -17 7 -20 -3 -3 -34 26 -69 63 -34 37 -56 59 -48 48 8
-10 49 -57 91 -104 43 -47 75 -87 73 -90 -3 -3 -32 20 -63 50 -32 30 -18 15
30 -32 49 -47 96 -86 104 -86 11 0 9 6 -6 22 -18 19 -19 24 -6 34 11 10 17 9
26 -6 9 -14 10 -14 7 -2 -3 9 -1 21 4 26 8 8 -97 194 -123 218 -7 6 -5 -1 4
-15 8 -14 30 -49 48 -78 38 -62 35 -81 -4 -22 -14 22 -29 40 -32 40 -3 0 4
-14 16 -31 12 -16 20 -33 17 -35 -3 -3 -41 48 -85 113 -75 112 -112 156 -112
137 0 -5 -7 0 -15 10 -8 11 -15 17 -15 13z m205 -314 c-3 -9 0 -11 7 -7 7 5 8
3 3 -6 -6 -9 -4 -11 5 -5 8 5 11 4 7 -1 -3 -6 4 -10 16 -10 17 0 22 6 23 26 1
14 -1 19 -3 12 -4 -10 -8 -10 -21 0 -15 12 -16 11 -3 -5 16 -21 9 -34 -8 -14
-16 20 -3 51 15 36 8 -6 14 -8 14 -3 0 19 21 -15 26 -42 3 -16 2 -25 -2 -21
-4 4 -16 0 -26 -10 -17 -15 -17 -17 -1 -37 10 -12 3 -8 -15 8 -17 16 -30 32
-27 34 2 3 -9 21 -25 40 -16 19 -27 39 -24 44 9 14 46 -24 39 -39z"/>
<path d="M1830 2146 c0 -2 8 -10 18 -17 15 -13 16 -12 3 4 -13 16 -21 21 -21
13z"/>
<path d="M1884 2069 c-8 -14 14 -19 25 -6 8 10 7 14 -5 14 -8 0 -17 -4 -20 -8z"/>
<path d="M1669 2362 c5 -10 18 -25 27 -33 11 -9 9 -2 -6 19 -26 35 -36 42 -21
14z"/>
<path d="M1756 2368 c36 -60 87 -138 91 -138 3 0 -1 10 -9 23 -9 12 -30 46
-47 75 -18 28 -35 52 -37 52 -3 0 -2 -6 2 -12z"/>
<path d="M1728 2318 c18 -18 14 -32 -5 -17 -9 8 2 -12 26 -43 24 -32 47 -55
52 -52 9 5 -66 124 -78 124 -4 0 -2 -5 5 -12z m37 -54 c9 -15 12 -23 6 -20
-11 7 -35 46 -28 46 3 0 12 -12 22 -26z"/>
<path d="M2296 2075 c-9 -26 -7 -32 5 -12 6 10 9 21 6 23 -2 3 -7 -2 -11 -11z"/>
<path d="M2306 2045 c-9 -26 -7 -32 5 -12 6 10 9 21 6 23 -2 3 -7 -2 -11 -11z"/>
<path d="M2186 2035 c-9 -26 -7 -32 5 -12 6 10 9 21 6 23 -2 3 -7 -2 -11 -11z"/>
<path d="M2166 1985 c-3 -9 -6 -22 -5 -28 0 -7 5 -1 10 12 5 13 8 26 5 28 -2
2 -6 -3 -10 -12z"/>
<path d="M1800 1835 c0 -2 23 -16 50 -30 28 -14 50 -23 50 -20 0 2 -22 16 -50
30 -27 14 -50 23 -50 20z"/>
<path d="M1817 1785 c-15 -11 -16 -13 -2 -19 8 -3 14 -10 13 -17 -2 -6 8 -18
22 -27 17 -12 22 -13 16 -3 -6 9 -5 12 5 9 8 -3 13 -10 12 -16 -2 -6 7 -16 18
-22 16 -9 25 -8 40 6 21 19 16 36 -8 27 -10 -4 -14 -2 -10 5 7 10 -23 36 -68
60 -15 7 -25 7 -38 -3z m18 -4 c-3 -6 3 -9 12 -8 29 2 72 -32 68 -54 -4 -22 5
-24 26 -7 7 7 7 5 -2 -6 -13 -14 -21 -16 -35 -7 -14 7 -15 10 -4 11 10 0 9 4
-6 14 -11 8 -29 14 -39 13 -11 -1 -20 3 -20 8 0 6 -3 15 -7 21 -4 6 -5 14 -1
18 10 9 15 7 8 -3z"/>
<path d="M1854 1762 c3 -6 3 -12 -1 -15 -5 -2 -2 -2 6 0 7 2 20 -2 28 -8 7 -7
15 -10 18 -7 2 2 -10 12 -27 22 -17 11 -28 14 -24 8z"/>
<path d="M1910 1776 c0 -2 14 -14 30 -26 17 -12 30 -19 30 -16 0 2 -13 14 -30
26 -16 12 -30 19 -30 16z"/>
<path d="M1990 1715 c14 -17 13 -18 -2 -12 -25 9 -22 0 3 -14 15 -8 19 -8 15
0 -11 17 5 13 27 -6 11 -10 17 -13 13 -6 -3 7 -21 22 -39 35 -26 18 -29 19
-17 3z"/>
<path d="M2660 1202 c-53 -24 -110 -98 -110 -142 0 -15 9 -35 20 -45 19 -17
26 -18 63 -7 23 7 51 15 62 19 12 3 3 -10 -24 -34 -33 -29 -43 -44 -38 -57 11
-27 40 -15 59 24 10 19 30 45 45 58 25 21 26 23 6 17 -17 -5 -23 -2 -23 9 0
13 -7 12 -41 -6 -67 -35 -119 -25 -119 22 0 54 91 144 140 138 48 -6 33 -81
-24 -118 -20 -12 -25 -20 -15 -20 10 0 31 16 49 36 25 29 30 43 28 72 -3 33
-6 37 -33 39 -16 1 -37 -1 -45 -5z m16 -247 c-18 -27 -36 -33 -36 -11 0 13 41
47 49 40 2 -2 -4 -15 -13 -29z"/>
<path d="M1417 1172 c-69 -25 -117 -66 -116 -100 2 -23 2 -24 6 -5 12 64 175
135 247 107 25 -10 19 -50 -13 -81 -31 -31 -107 -70 -117 -60 -4 3 0 27 8 52
11 33 12 42 3 35 -7 -6 -16 -26 -19 -45 -5 -23 -11 -32 -20 -29 -8 3 -17 1
-21 -5 -3 -6 1 -14 9 -17 20 -8 20 -31 1 -68 -13 -25 -13 -27 0 -16 8 6 17 21
21 32 6 19 8 18 39 -12 39 -38 79 -38 103 0 l16 25 -25 -22 c-34 -31 -52 -29
-88 8 -34 34 -39 49 -16 49 27 0 92 38 119 70 29 35 35 85 10 94 -29 11 -98 5
-147 -12z"/>
<path d="M2238 1098 c-13 -39 -18 -44 -54 -49 l-39 -6 43 -2 c41 -1 42 -2 42
-34 0 -40 24 -77 51 -77 26 0 71 24 90 46 11 14 7 13 -17 -3 -44 -32 -78 -38
-94 -17 -14 16 -22 84 -11 82 3 -1 13 2 21 5 8 3 31 8 50 10 33 4 32 4 -8 5
l-42 2 6 40 c9 57 -19 55 -38 -2z m22 -13 c-15 -39 -23 -25 -8 16 6 18 13 29
15 23 2 -6 -1 -24 -7 -39z"/>
<path d="M3324 1105 c-9 -14 -19 -45 -21 -69 -5 -38 -8 -42 -28 -38 -16 3 -27
-2 -35 -18 -24 -44 11 -68 45 -30 l18 20 14 -20 c8 -11 25 -20 39 -20 25 0
110 38 102 46 -2 2 -22 -5 -43 -16 -50 -25 -70 -25 -89 1 -13 19 -12 26 10 72
37 79 28 133 -12 72z m11 -45 c-23 -44 -30 -31 -9 16 9 22 18 34 21 27 2 -6
-3 -26 -12 -43z m-51 -79 c3 -4 -3 -16 -14 -26 -19 -17 -20 -17 -20 2 0 29 22
45 34 24z"/>
<path d="M3516 1088 c-20 -56 -36 -118 -36 -142 0 -18 2 -18 25 4 23 22 26 22
43 7 10 -10 29 -17 41 -17 28 0 81 27 81 42 0 6 -7 5 -17 -5 -30 -26 -71 -32
-93 -12 -12 11 -26 14 -39 10 -27 -8 -27 -5 10 60 17 30 29 62 27 71 -6 33
-26 24 -42 -18z m19 -14 c-8 -20 -15 -39 -15 -42 0 -3 -3 -3 -6 1 -8 7 18 77
28 77 5 0 1 -16 -7 -36z"/>
<path d="M2786 988 c-30 -43 -8 -82 24 -43 10 12 15 12 36 -1 15 -11 33 -14
50 -10 33 9 74 35 74 48 0 5 -12 0 -26 -11 -36 -28 -90 -28 -105 0 -11 22 -11
21 -35 -7 -17 -22 -23 -25 -24 -12 0 9 12 26 26 37 19 15 22 21 11 21 -9 0
-23 -10 -31 -22z"/>
<path d="M1617 993 c-4 -3 -7 -17 -7 -30 0 -22 2 -23 58 -17 59 7 112 28 112
44 0 5 -15 1 -32 -10 -39 -23 -88 -27 -88 -6 0 8 -7 17 -16 20 -19 7 -19 7
-27 -1z m19 -40 c-11 -11 -19 6 -11 24 8 17 8 17 12 0 3 -10 2 -21 -1 -24z"/>
<path d="M2047 993 c-23 -23 8 -63 49 -63 21 0 108 50 100 57 -3 3 -17 -4 -33
-15 -40 -28 -69 -35 -93 -22 -15 8 -19 17 -15 31 7 20 3 24 -8 12z"/>
<path d="M3707 993 c-23 -23 8 -63 49 -63 21 0 108 50 100 57 -3 3 -17 -4 -33
-15 -40 -28 -69 -35 -93 -22 -15 8 -19 17 -15 31 7 20 3 24 -8 12z"/>
<path d="M1807 969 c-8 -31 -1 -36 21 -16 20 18 52 23 52 8 0 -12 39 -26 64
-22 25 4 66 30 66 43 0 5 -12 0 -26 -11 -34 -27 -72 -27 -101 0 -19 19 -25 20
-38 9 -13 -11 -18 -11 -24 -1 -6 9 -10 6 -14 -10z"/>
<path d="M3007 984 c-4 -4 -7 -19 -7 -32 l0 -25 23 21 c27 26 40 27 57 7 20
-24 75 -19 107 11 l28 26 -32 -21 c-40 -27 -71 -27 -99 0 -18 17 -26 19 -42
10 -14 -8 -21 -8 -24 0 -2 6 -7 7 -11 3z"/>
</g>
</svg>
